# xmcd
#
# Track frame offsets:
#	150
#	20830
#	37911
#	59645
#	76346
#	97516
#	117212
#	134408
#	152314
#	165220
#	184234
#	201714
#
# Disc length: 2870 seconds
#
# Revision: 1
# Processed by: cddbd v1.5.2PL0 Copyright (c) Steve Scherf et al.
# Submitted via: audiograbber 1.83.01
#
DISCID=940b340c
DTITLE=John Studebaker and the Hawks - Outside Lookin' In
DYEAR=1900
DGENRE=
TTITLE0=Shake
TTITLE1=Dirty Business
TTITLE2=She's a Rocker
TTITLE3=Whoa Yeah
TTITLE4=Outside Lookin' In
TTITLE5=New Way of Walkin'
TTITLE6=Nothin' But Fun
TTITLE7=Blue Feelin'
TTITLE8=Circumstances
TTITLE9=You Done Me Wrong
TTITLE10=Tell Me Why
TTITLE11=Flippin' Out
EXTD=
EXTT0=
EXTT1=
EXTT2=
EXTT3=
EXTT4=
EXTT5=
EXTT6=
EXTT7=
EXTT8=
EXTT9=
EXTT10=
EXTT11=
PLAYORDER=
